HIERARCHY
ROOT hip
{
	OFFSET 0.000000 0.000000 0.000000 
	CHANNELS 6 Xposition Yposition Zposition Xrotation Zrotation Yrotation
	JOINT abdomen
	{
		OFFSET 0.000000 3.402643 0.000000 
		CHANNELS 3 Xrotation Zrotation Yrotation
		JOINT chest
		{
			OFFSET 0.000000 8.438565 -0.680529 
			CHANNELS 3 Xrotation Zrotation Yrotation
			JOINT neck
			{
				OFFSET 0.000000 10.207942 -0.272212 
				CHANNELS 3 Xrotation Zrotation Yrotation
				JOINT head
				{
					OFFSET 0.000000 3.130431 0.000000 
					CHANNELS 3 Xrotation Zrotation Yrotation
					End Site
					{
						OFFSET 0.000000 3.130435 0.000000 
					}
				}
			}
			JOINT lCollar
			{
				OFFSET 3.470700 6.669187 -0.816635 
				CHANNELS 3 Yrotation Zrotation Xrotation
				JOINT lShldr
				{
					OFFSET 3.198488 0.000000 0.000000 
					CHANNELS 3 Zrotation Yrotation Xrotation
					JOINT lForeArm
					{
						OFFSET 10.139888 0.000000 0.000000 
						CHANNELS 3 Yrotation Zrotation Xrotation
						JOINT lHand
						{
							OFFSET 8.370511 0.000000 0.000000 
							CHANNELS 3 Zrotation Yrotation Xrotation
							End Site
							{
								OFFSET 4.083176 0.000000 0.000000 
							}
						}
					}
				}
			}
			JOINT rCollar
			{
				OFFSET -3.470700 6.669187 -0.816635 
				CHANNELS 3 Yrotation Zrotation Xrotation
				JOINT rShldr
				{
					OFFSET -3.198488 0.000000 0.000000 
					CHANNELS 3 Zrotation Yrotation Xrotation
					JOINT rForeArm
					{
						OFFSET -10.139888 0.000000 0.000000 
						CHANNELS 3 Yrotation Zrotation Xrotation
						JOINT rHand
						{
							OFFSET -8.370511 0.000000 0.000000 
							CHANNELS 3 Zrotation Yrotation Xrotation
							End Site
							{
								OFFSET -4.083176 0.000000 0.000000 
							}
						}
					}
				}
			}
		}
	}
	JOINT lThigh
	{
		OFFSET 5.308129 -1.633274 1.361059 
		CHANNELS 3 Xrotation Zrotation Yrotation
		JOINT lShin
		{
			OFFSET -2.041588 -20.007561 0.000000 
			CHANNELS 3 Xrotation Zrotation Yrotation
			JOINT lFoot
			{
				OFFSET 0.000000 -19.190928 -1.224953 
				CHANNELS 3 Xrotation Yrotation Zrotation
				End Site
				{
					OFFSET 0.000000 -2.449906 4.627600 
				}
			}
		}
	}
	JOINT rThigh
	{
		OFFSET -5.308129 -1.633274 1.361059 
		CHANNELS 3 Xrotation Zrotation Yrotation
		JOINT rShin
		{
			OFFSET 2.041588 -20.007561 0.000000 
			CHANNELS 3 Xrotation Zrotation Yrotation
			JOINT rFoot
			{
				OFFSET 0.000000 -19.190928 -1.224953 
				CHANNELS 3 Xrotation Yrotation Zrotation
				End Site
				{
					OFFSET 0.000000 -2.449906 4.627600 
				}
			}
		}
	}
}
MOTION
Frames: 8
Frame Time: 0.033333
1.250632 34.314411 1.250632 -4.853671 0.457339 -0.556412 25.091000 6.434278 -16.433836 -5.108022 -1.948266 10.476600 5.619781 -1.270139 -0.049069 10.524219 0.508720 -0.030344 -2.071103 -5.047252 3.908743 -48.796608 -44.834949 13.948543 -78.330811 -3.120926 1.288988 28.919441 8.609088 -59.839691 2.902458 5.412355 3.899135 82.634819 40.425488 -4.389452 59.358273 2.884145 1.753160 70.225319 42.227501 108.678001 -55.308178 9.959535 7.385386 71.314781 1.653246 -4.650289 -12.689689 6.013969 -0.189811 -30.846315 -19.623991 -24.521822 94.380714 -3.319968 4.479606 -43.703857 -8.300570 2.939347 
1.250632 35.952316 1.250632 -4.853671 0.457339 -0.556412 25.069370 6.506664 -16.637167 -5.250403 -4.219937 13.766144 -7.937788 -0.518391 2.226290 10.524219 0.508720 -0.030344 0.833638 -4.829631 12.285766 -50.812756 -49.277527 21.900072 -80.721146 -3.141190 1.221385 32.169910 6.549601 -58.861797 4.240030 6.233360 12.233206 79.265327 33.146931 -15.514538 54.624786 2.801630 1.860893 61.772335 41.870853 102.630165 -53.623047 9.570651 7.651232 64.660690 1.173276 -4.558074 -4.556022 5.930794 -0.433867 -31.900518 -19.125479 -24.804691 90.673141 -3.056621 4.567721 -36.139328 -8.372717 2.552284 
1.250632 37.318180 1.250632 -4.853671 0.457339 -0.556412 25.065411 6.519816 -16.674839 -5.532488 -5.942972 16.452354 -18.716110 0.827483 3.701872 10.524219 0.508720 -0.030344 3.191613 -4.542378 19.075741 -53.996094 -53.696304 29.684965 -83.150627 -3.155549 1.157876 35.505138 4.298793 -57.961704 5.262332 6.839229 19.017254 77.696442 25.788502 -24.550732 49.655090 2.702779 1.959280 53.291409 40.744358 96.693092 -52.049454 9.189281 7.887213 58.483356 0.748635 -4.425377 3.059912 5.862514 -0.610243 -32.870186 -18.661068 -25.090893 87.241112 -2.812083 4.596535 -29.083757 -8.487983 2.196155 
1.250632 38.473049 1.250632 -4.853671 0.457339 -0.556412 25.102688 6.394765 -16.323036 -5.895894 -6.293262 17.582809 -22.696552 1.674622 4.077585 10.524219 0.508720 -0.030344 4.123203 -4.218375 21.897196 -56.648342 -57.776276 34.625492 -85.595634 -3.175326 1.093695 38.871826 1.938158 -57.166138 5.641665 7.259933 21.840300 76.949951 19.769695 -30.395458 45.167431 2.607528 2.046036 45.537956 39.270020 91.255951 -51.029861 8.924134 8.037606 54.127335 0.454884 -4.310184 8.601480 5.798993 -0.721676 -33.649902 -18.346268 -25.301653 84.920555 -2.646500 4.621029 -24.020977 -8.631076 1.958729 
1.250632 38.856152 1.250632 -4.853671 0.457339 -0.556412 25.107990 6.086734 -15.604117 -6.395122 -4.772536 16.578129 -20.183504 1.648736 3.358613 10.524219 0.508720 -0.030344 3.365793 -3.794540 21.596972 -56.598522 -61.148216 34.135429 -88.046638 -3.184316 1.017451 42.226391 -0.478522 -56.507870 4.949507 7.682983 21.536514 75.648018 15.698022 -32.177853 41.854382 2.536931 2.098660 39.027676 38.044853 86.406387 -50.927666 8.867443 8.072339 52.977634 0.363317 -4.276906 10.506490 5.781836 -0.765375 -34.042126 -18.290056 -25.337915 84.520416 -2.617123 4.636520 -22.453888 -8.699094 1.867475 
1.250632 38.117710 1.250632 -4.853671 0.457339 -0.556412 25.049139 5.681672 -14.705309 -7.120442 -2.013474 14.098406 -14.830254 1.454078 1.814253 10.524219 0.508720 -0.030344 1.619406 -3.212940 20.597450 -53.611057 -63.915176 28.840576 -90.488838 -3.189690 0.951156 45.515285 -2.900733 -55.992619 3.405242 8.224767 20.521265 73.023155 13.761523 -30.815784 40.443512 2.502693 2.119291 34.019325 37.684349 82.008331 -51.991646 9.033447 7.952482 55.881863 0.557825 -4.360753 7.844637 5.848166 -0.722391 -33.960430 -18.548748 -25.169455 86.666245 -2.773270 4.589435 -25.105728 -8.611085 2.046259 
1.250632 36.607498 1.250632 -4.853671 0.457339 -0.556412 25.052387 5.210547 -13.600661 -7.966362 1.105551 11.106831 -7.541477 1.536063 0.011960 10.524219 0.508720 -0.030344 -0.535328 -2.608059 18.918257 -48.133484 -66.680397 20.387705 -92.906052 -3.197481 0.888444 48.709164 -5.247765 -55.642178 1.583217 8.779303 18.793560 69.214714 14.553102 -27.616865 41.622490 2.528085 2.104687 30.696331 38.816174 77.836662 -53.914124 9.403676 7.726682 61.854492 0.980322 -4.506927 1.774854 5.931394 -0.584296 -33.559906 -19.085646 -24.833092 90.791801 -3.055952 4.531631 -30.838905 -8.467511 2.421956 
1.250632 34.880726 1.250632 -4.853671 0.457339 -0.556412 25.203604 4.734312 -12.261461 -8.704729 3.746540 8.570406 0.677181 2.024352 -1.453710 10.524219 0.508720 -0.030344 -2.537559 -2.094420 16.490255 -40.304897 -70.023613 10.202374 -95.282715 -3.195742 0.829418 51.742233 -7.465744 -55.431915 0.063609 9.190099 16.327291 65.318214 17.424482 -24.327709 45.045536 2.608300 2.042544 28.331530 41.274715 73.440765 -56.309223 9.850910 7.409520 69.492813 1.507197 -4.646952 -6.167432 6.026664 -0.415010 -32.977203 -19.773539 -24.452934 95.921936 -3.437010 4.448947 -38.286743 -8.284839 2.905756 
